<?xml version="1.0" encoding="utf-8"?>
<!-- Generator: Adobe Illustrator 23.0.3, SVG Export Plug-In . SVG Version: 6.00 Build 0)  -->
<svg version="1.1" id="Слой_1" xmlns="http://www.w3.org/2000/svg" xmlns:xlink="http://www.w3.org/1999/xlink" x="0px" y="0px"
	 viewBox="0 0 170.2 48.8" style="enable-background:new 0 0 170.2 48.8;" xml:space="preserve">
<style type="text/css">
	.st0{fill-rule:evenodd;clip-rule:evenodd;fill:#0093DD;}
	.st1{fill-rule:evenodd;clip-rule:evenodd;fill:#2E384E;}
</style>
<g id="XMLID_313_">
	<path id="XMLID_326_" class="st0" d="M146.6,6.7c7.3,0,13.6,2.2,16.8,5.3c0.1,0,0.1,0,0.1,0l5.6-1.6c-3-6.1-12-10.5-22.5-10.5l0,0
		V6.7L146.6,6.7L146.6,6.7z M146.6,46.9V42c6.3,0,11.5-4.6,11.5-10.2c0-5.7-5.2-10.2-11.5-10.2v-4.8l0,0c11.6,0,21.1,6.7,21.1,15
		c0,3.4-1.6,6.5-4.2,9c0,0,0,0,0,0.1h4.4l2.4,8c-0.5-0.1-5.8-1.9-9.3-2.1c-3.6-0.1-7.4,0.1-9.9,0.1
		C148.6,46.9,146.9,46.9,146.6,46.9z M146.6,0C136,0,127.1,4.4,124,10.4l5.7,1.7c3.2-3.2,9.5-5.3,16.8-5.3V0L146.6,0z M146.6,16.7
		v4.8l0,0c-6.4,0-11.5,4.5-11.5,10.2c0,5.6,5.1,10.2,11.5,10.2l0,0v4.9c-0.1,0-0.1,0-0.1,0l0,0c-11.6-0.1-21-6.8-21-15.1
		C125.5,23.4,134.9,16.7,146.6,16.7z"/>
	<path id="XMLID_314_" class="st1" d="M59.8,2c-1.3,0-2.4,0.4-3.3,1.3c-1,1-1.4,2.1-1.4,3.3c0,1.3,0.4,2.4,1.4,3.3
		c0.9,1,2,1.4,3.3,1.4c1.3,0,2.4-0.4,3.3-1.4c1-0.9,1.4-2,1.4-3.3c0-1.3-0.4-2.4-1.4-3.3C62.3,2.4,61.2,2,59.8,2L59.8,2z M21,46.9
		V42c6.4,0,11.5-4.6,11.5-10.2c0-5.6-5.1-10.3-11.5-10.3v-4.8l0,0c11.6,0,21.1,6.8,21.1,15.1c0,0.1-0.1,7.7,0,9
		c0.1,3.5,2,5.6,2.1,5.9H32.5v-2.1C29.1,46,25.2,46.9,21,46.9L21,46.9L21,46.9L21,46.9L21,46.9z M53.5,19.9L53.5,19.9
		c0,0.1,1.8,2.3,2,5.8v20.8h9.1v-30L53.5,19.9L53.5,19.9L53.5,19.9z M113.5,33.5c-1.9-1.3-7.9-2.7-17.9-4.6c-2.7-0.4-4.5-1-5.6-1.7
		c-1-0.7-1.6-1.4-1.6-2.3c0-1,0.7-1.8,2.3-2.4c1.5-0.7,3.6-1,6.2-1c2.3,0,4.5,0.2,6.5,0.7c2.2,0.5,7,2.1,9,3.1l-1.9-6.7
		c-1-0.4-2.2-0.7-3.3-1c-3.3-0.7-6.7-1.1-10.7-1.1c-5.5,0-10,0.8-13.6,2.4c-3.5,1.6-5.3,3.8-5.3,6.3c0,2.2,1.3,3.9,3.8,5.3
		c2.5,1.4,7.8,2.7,15.9,3.9c3,0.4,5.1,1,6.4,1.6c1.3,0.7,1.9,1.4,1.9,2.4c0,1.1-0.9,1.6-2.7,2.4c-1.8,0.7-4.2,1.1-7.1,1.1l0,0
		C95.1,42,94.5,42,93.9,42c-2.3,0-4.4-0.2-6.4-0.7c-2.2-0.5-7-2.2-9-3.2l2,6.9c0.1,0,0.1,0,0.1,0h-0.1c1.3,0.4,2.7,0.9,4.1,1.2
		c3.3,0.7,6.9,1.1,10.7,1.1c6.7,0,11.9-0.9,15.5-2.6c3.7-1.8,5.5-3.9,5.5-6.4C116.3,36.3,115.4,34.8,113.5,33.5z M21,16.6v4.8l0,0
		c-6.3,0-11.5,4.6-11.5,10.3C9.5,37.4,14.7,42,21,42l0,0v4.9c-11.6,0-21-6.7-21-15.1C0,23.4,9.4,16.6,21,16.6z"/>
</g>
</svg>
